<svg width="40" height="40" viewBox="0 0 18 21" fill="none" xmlns="http://www.w3.org/2000/svg">
<path d="M8.80074 6.08016C8.81557 6.098 8.83407 6.11235 8.85493 6.12219C8.8758 6.13203 8.89854 6.13713 8.92158 6.13713C8.94462 6.13713 8.96736 6.13203 8.98823 6.12219C9.00909 6.11235 9.02759 6.098 9.04242 6.08016C9.6759 5.29792 10.3084 4.5377 10.919 3.80283C11.6929 2.86744 12.443 1.92984 13.2158 0.998859C13.9146 0.190165 14.7876 -0.163494 15.8358 0.117455C16.2183 0.217659 16.5721 0.407755 16.8683 0.672294C17.1645 0.936832 17.395 1.26835 17.5409 1.63995C17.6868 2.01154 17.7441 2.41272 17.7081 2.81093C17.6721 3.20913 17.5438 3.59313 17.3337 3.93174C17.1477 4.21586 16.9391 4.48412 16.7099 4.73382C15.3123 6.45146 13.9146 8.14931 12.4919 9.86254C12.0489 10.4233 12.1893 10.2371 12.64 10.8541L16.994 16.1172C18.3406 17.5836 17.7561 19.7982 15.9404 20.3942C14.9422 20.7247 13.894 20.3942 13.1951 19.5348C11.9466 18.0188 10.7242 16.5281 9.47565 15.0176C9.35154 14.8655 9.25147 14.7389 9.12628 14.5879C8.87698 14.2849 8.85196 14.2849 8.60266 14.6132C7.47929 15.9519 6.38104 17.3159 5.25767 18.6546C5.00838 18.9586 4.78311 19.2616 4.53381 19.5359C3.58567 20.6476 2.03777 20.8238 0.941695 19.9149C-0.181675 18.9807 -0.30578 17.3886 0.615166 16.2262C2.16296 14.3323 3.70978 12.4627 5.25767 10.5929C5.55701 10.214 5.55701 10.214 5.25767 9.86033C3.75981 8.04127 2.26314 6.2245 0.765378 4.42863C0.158996 3.69926 -0.167531 2.91592 0.0872045 1.97942C0.188664 1.53878 0.403643 1.13321 0.710295 0.804007C1.01695 0.474798 1.40429 0.233719 1.83287 0.1053C2.26156 -0.0231198 2.71614 -0.0342837 3.15036 0.0729394C3.58468 0.180163 3.9831 0.401948 4.30518 0.715707C4.4543 0.867746 4.60452 1.04623 4.75364 1.22142C5.914 2.64048 8.2435 5.4169 8.80074 6.08016Z" fill="#8DBC1A"/>
</svg>
