<svg width="226" height="73" viewBox="0 0 226 73" fill="none" xmlns="http://www.w3.org/2000/svg">
<g clip-path="url(#clip0_411_2)">
<path d="M123.76 10.7271C134.743 4.29855 146.75 7.42726 153.466 14.945C160.522 22.7952 161.49 34.4563 155.742 43.2766C152.329 48.4449 147.661 51.7944 141.63 53.2831C135.599 54.7715 129.734 53.7148 124.329 50.8018V65.108C124.329 68.5816 122.167 71.1942 118.981 71.4222C115.68 71.7054 112.89 69.2589 112.721 65.8475C112.664 65.1628 112.721 64.4803 112.721 63.7978V14.1411C112.69 13.2371 112.805 12.3339 113.061 11.4665C113.858 9.36001 115.337 8.05246 117.558 7.71008C119.663 7.31311 121.485 8.05246 122.964 9.64535C123.256 9.98532 123.523 10.3469 123.76 10.7271ZM124.386 30.5238C124.046 35.8732 128.541 42.416 136.222 42.416C142.71 42.473 148.003 37.1237 148.06 30.5808C148.06 23.9812 142.824 18.6344 136.222 18.6915C128.769 18.7485 124.101 25.063 124.386 30.5238Z" fill="white"/>
<path d="M89.5672 12.0365C89.9669 11.7536 89.9669 11.4112 90.0787 11.1259C91.2749 8.62246 93.7792 7.31491 96.4544 7.82604C97.7219 8.06 98.8732 8.71599 99.7203 9.68731C100.568 10.6586 101.061 11.888 101.12 13.1753V47.8212C101.16 48.7302 101.025 49.6385 100.721 50.4961C99.8099 52.7712 98.1048 54.0789 95.6579 54.2499C93.2677 54.3643 91.4388 53.2824 90.2497 51.2356C90.0573 50.8857 89.8867 50.5242 89.7385 50.1537C89.3388 50.0397 89.113 50.3818 88.8847 50.5531C75.5099 60.0534 57.1169 53.3394 52.8059 37.1826C49.5048 24.8935 56.5608 11.9794 68.5109 8.34706C75.5099 6.18354 82.1613 7.2653 88.3162 11.3045C88.7695 11.4808 89.1918 11.7278 89.5672 12.0365ZM63.6738 31.0393C63.6663 32.1328 63.8002 33.223 64.0735 34.2821C66.178 42.5319 75.8523 46.0572 82.4542 40.9389C88.3735 36.386 88.9417 27.5681 83.695 22.2785C80.965 19.5492 77.6073 18.2938 73.738 18.9215C67.8284 19.9437 63.7308 24.9505 63.6738 31.0393Z" fill="white"/>
<path d="M186.773 20.9466C186.807 20.9868 186.849 21.0191 186.896 21.0413C186.944 21.0634 186.996 21.0749 187.048 21.0749C187.101 21.0749 187.152 21.0634 187.2 21.0413C187.248 21.0191 187.29 20.9868 187.324 20.9466C188.768 19.1851 190.21 17.4731 191.603 15.8182C193.367 13.7117 195.077 11.6003 196.839 9.50379C198.433 7.68264 200.423 6.88622 202.813 7.51892C203.685 7.74455 204.492 8.17265 205.167 8.76838C205.842 9.3641 206.368 10.1107 206.701 10.9475C207.033 11.7843 207.164 12.6877 207.082 13.5845C207 14.4812 206.708 15.346 206.228 16.1085C205.804 16.7483 205.329 17.3524 204.806 17.9147C201.62 21.7828 198.433 25.6063 195.189 29.4644C194.179 30.7272 194.499 30.3079 195.526 31.6972L205.454 43.5496C208.524 46.8519 207.191 51.839 203.051 53.1811C200.775 53.9255 198.386 53.1811 196.792 51.2458C193.945 47.8317 191.158 44.4747 188.312 41.0735C188.028 40.7307 187.8 40.4458 187.515 40.1056C186.947 39.4235 186.89 39.4235 186.321 40.1626C183.76 43.1772 181.256 46.2489 178.694 49.2635C178.126 49.9482 177.612 50.6307 177.044 51.2484C174.882 53.7519 171.353 54.1486 168.854 52.1019C166.292 49.9977 166.01 46.4128 168.109 43.7952C171.638 39.53 175.165 35.3197 178.694 31.1092C179.377 30.2558 179.377 30.2558 178.694 29.4594C175.279 25.363 171.867 21.2717 168.452 17.2274C167.069 15.5849 166.325 13.8209 166.905 11.7119C167.137 10.7197 167.627 9.80634 168.326 9.06497C169.025 8.32363 169.908 7.78074 170.886 7.49154C171.863 7.20234 172.899 7.17718 173.889 7.41864C174.88 7.6601 175.788 8.15957 176.523 8.86614C176.862 9.20852 177.205 9.61044 177.545 10.005C180.191 13.2006 185.502 19.453 186.773 20.9466Z" fill="#8DBC1A"/>
<path d="M25.4451 6.20282C31.6498 6.20282 36.9982 8.30927 41.6641 12.2914C44.2824 14.5666 44.6225 18.2064 42.4085 20.6528C41.4969 21.6877 40.2433 22.3606 38.8764 22.5486C37.5095 22.7367 36.1206 22.4275 34.9631 21.6775C34.4517 21.3351 34.0522 20.9332 33.5408 20.5957C27.562 15.76 18.2749 17.2388 14.0631 23.6127C9.39718 30.6666 13.2664 40.3951 21.6899 42.5559C26.1276 43.6948 30.168 42.8983 33.7543 39.9954C35.5734 38.4598 37.6236 37.9486 39.8424 38.8021C40.7019 39.1213 41.4729 39.6414 42.0909 40.3183C42.7089 40.9955 43.1563 41.8104 43.3955 42.6954C43.6348 43.5804 43.6595 44.5093 43.4671 45.4059C43.2748 46.3021 42.8709 47.1395 42.2896 47.8483C41.8209 48.3504 41.3236 48.8251 40.8001 49.2699C35.3403 53.4875 29.1356 55.3558 22.2484 54.4479C13.3136 53.2074 6.65473 48.5304 2.78549 40.3951C-2.90543 28.3914 2.10297 12.8546 17.0116 7.62448C19.7118 6.6379 22.5704 6.15598 25.4451 6.20282Z" fill="white"/>
<path d="M214.648 2.08937H212.713V0.875H217.975V2.08937H216.04V7.32676H214.642V2.08937H214.648Z" fill="white"/>
<path d="M224.189 7.33299L224.183 3.45944L222.406 6.64794H221.776L220.005 3.54039V7.33299H218.694V0.875H219.848L222.109 4.88555L224.335 0.875H225.483L225.5 7.33299H224.189Z" fill="white"/>
</g>
<defs>
<clipPath id="clip0_411_2">
<rect width="225" height="71.25" fill="white" transform="translate(0.5 0.875)"/>
</clipPath>
</defs>
</svg>
